<?xml version="1.0" encoding="UTF-8"?>
<svg xmlns="http://www.w3.org/2000/svg" xmlns:xlink="http://www.w3.org/1999/xlink" width="50px" height="50px" viewBox="0 0 50 50" version="1.1">
<g id="surface1">
<path style=" stroke:none;fill-rule:nonzero;fill:rgb(6.666667%,48.235294%,70.980392%);fill-opacity:1;" d="M 4.785156 1.398438 C 3.4375 1.855469 2.453125 2.675781 1.835938 3.867188 C 1.179688 5.136719 1.21875 3.671875 1.21875 25 C 1.21875 41.101562 1.242188 44.472656 1.359375 44.921875 C 1.6875 46.257812 2.703125 47.609375 3.859375 48.210938 C 5.117188 48.867188 4.042969 48.828125 19.484375 48.828125 C 34.757812 48.828125 33.992188 48.859375 35.097656 48.261719 C 35.789062 47.898438 36.921875 46.75 37.234375 46.09375 C 37.765625 44.992188 37.792969 44.726562 37.792969 40.398438 L 37.792969 36.414062 L 37.546875 36.179688 C 37.265625 35.890625 36.921875 35.867188 36.609375 36.125 L 36.375 36.308594 L 36.328125 40.5 L 36.28125 44.679688 L 36.015625 45.234375 C 35.671875 45.976562 35.085938 46.582031 34.355469 46.984375 L 33.742188 47.3125 L 5.320312 47.3125 L 4.765625 47.039062 C 3.679688 46.515625 2.96875 45.554688 2.734375 44.335938 C 2.585938 43.585938 2.597656 6.386719 2.742188 5.617188 C 2.960938 4.445312 3.71875 3.4375 4.765625 2.949219 L 5.320312 2.6875 L 16.335938 2.65625 L 27.34375 2.636719 L 27.34375 5.996094 C 27.34375 8 27.382812 9.5625 27.453125 9.84375 C 27.578125 10.4375 28.09375 11.085938 28.652344 11.335938 C 29.015625 11.503906 29.367188 11.523438 32.695312 11.523438 L 36.328125 11.523438 L 36.328125 13.859375 C 36.328125 16.0625 36.335938 16.203125 36.53125 16.445312 C 36.796875 16.777344 37.285156 16.796875 37.578125 16.476562 C 37.792969 16.25 37.792969 16.191406 37.792969 13.367188 L 37.792969 10.5 L 33.125 5.839844 L 28.46875 1.171875 L 16.945312 1.171875 L 5.421875 1.179688 Z M 32.128906 6.882812 L 35.304688 10.058594 L 29.210938 10.058594 L 29.015625 9.804688 C 28.820312 9.550781 28.808594 9.433594 28.808594 6.632812 C 28.808594 5.019531 28.835938 3.710938 28.886719 3.710938 C 28.925781 3.710938 30.382812 5.136719 32.128906 6.882812 Z M 32.128906 6.882812 "/>
<path style=" stroke:none;fill-rule:nonzero;fill:rgb(6.666667%,48.235294%,70.980392%);fill-opacity:1;" d="M 5.59375 12.011719 C 5.476562 12.0625 5.34375 12.1875 5.28125 12.296875 C 5.214844 12.421875 5.175781 13.78125 5.175781 16.25 C 5.175781 19.890625 5.1875 20.03125 5.371094 20.214844 C 5.554688 20.398438 5.695312 20.410156 9.414062 20.410156 L 13.273438 20.410156 L 13.46875 20.15625 C 13.664062 19.902344 13.671875 19.796875 13.671875 16.203125 L 13.671875 12.507812 L 13.203125 11.960938 L 9.5 11.945312 C 7.46875 11.933594 5.710938 11.960938 5.59375 12.011719 Z M 12.207031 16.210938 L 12.207031 19.042969 L 6.640625 19.042969 L 6.640625 13.378906 L 12.207031 13.378906 Z M 12.207031 16.210938 "/>
<path style=" stroke:none;fill-rule:nonzero;fill:rgb(6.666667%,48.235294%,70.980392%);fill-opacity:1;" d="M 43.3125 13.242188 C 42.609375 13.417969 41.984375 13.757812 41.425781 14.296875 C 40.722656 14.960938 27.597656 30.859375 27.507812 31.132812 C 27.34375 31.726562 26.59375 38.144531 26.671875 38.351562 C 26.710938 38.46875 26.867188 38.640625 27 38.730469 C 27.246094 38.886719 27.335938 38.867188 30.695312 37.78125 C 33.203125 36.972656 34.199219 36.601562 34.394531 36.425781 C 34.539062 36.289062 37.675781 32.53125 41.359375 28.078125 C 46.347656 22.050781 48.132812 19.8125 48.351562 19.355469 C 49.109375 17.765625 48.78125 15.789062 47.507812 14.460938 C 46.875 13.796875 46.257812 13.4375 45.398438 13.234375 C 44.640625 13.054688 44.082031 13.054688 43.3125 13.242188 Z M 45.65625 14.875 C 46.960938 15.546875 47.578125 16.953125 47.179688 18.367188 C 47.0625 18.796875 46.445312 19.726562 46.242188 19.796875 C 46.171875 19.8125 42.257812 16.671875 41.710938 16.152344 C 41.648438 16.09375 42.304688 15.390625 42.695312 15.097656 C 43.515625 14.492188 44.734375 14.394531 45.65625 14.875 Z M 41.765625 18.09375 L 42.46875 18.664062 L 41.242188 20.148438 C 40.566406 20.96875 37.96875 24.101562 35.46875 27.117188 L 30.929688 32.609375 L 30.214844 32.023438 C 29.328125 31.28125 29.25 31.191406 29.367188 31.023438 C 29.484375 30.878906 38.5625 19.890625 39.824219 18.378906 C 40.632812 17.414062 40.75 17.296875 40.90625 17.402344 C 40.996094 17.46875 41.386719 17.78125 41.765625 18.09375 Z M 44.601562 20.449219 L 45.304688 21.023438 L 44.394531 22.109375 C 43.898438 22.703125 41.367188 25.761719 38.78125 28.90625 C 36.179688 32.050781 33.984375 34.695312 33.898438 34.785156 C 33.75 34.929688 33.679688 34.902344 32.898438 34.238281 L 32.0625 33.535156 L 37.8125 26.582031 C 42.960938 20.359375 43.585938 19.640625 43.742188 19.746094 C 43.828125 19.8125 44.21875 20.136719 44.601562 20.449219 Z M 30.65625 34.265625 L 32.363281 35.683594 L 30.332031 36.359375 C 29.21875 36.726562 28.289062 37.011719 28.261719 36.984375 C 28.164062 36.882812 28.75 32.726562 28.847656 32.792969 C 28.90625 32.820312 29.71875 33.484375 30.65625 34.265625 Z M 30.65625 34.265625 "/>
<path style=" stroke:none;fill-rule:nonzero;fill:rgb(6.666667%,48.235294%,70.980392%);fill-opacity:1;" d="M 16.425781 14.09375 C 16.152344 14.375 16.152344 14.746094 16.40625 15.019531 L 16.609375 15.234375 L 22.023438 15.234375 C 27.3125 15.234375 27.441406 15.234375 27.636719 15.039062 C 27.742188 14.929688 27.832031 14.71875 27.832031 14.550781 C 27.832031 14.382812 27.742188 14.171875 27.636719 14.0625 C 27.441406 13.867188 27.3125 13.867188 22.039062 13.867188 L 16.632812 13.867188 Z M 16.425781 14.09375 "/>
<path style=" stroke:none;fill-rule:nonzero;fill:rgb(6.666667%,48.235294%,70.980392%);fill-opacity:1;" d="M 16.640625 17.226562 C 16.152344 17.441406 16.054688 17.988281 16.4375 18.339844 C 16.660156 18.554688 16.699219 18.554688 20.234375 18.554688 L 23.820312 18.554688 L 24.015625 18.300781 C 24.277344 17.960938 24.265625 17.742188 23.984375 17.414062 L 23.75 17.140625 L 20.34375 17.117188 C 17.636719 17.101562 16.882812 17.117188 16.640625 17.226562 Z M 16.640625 17.226562 "/>
<path style=" stroke:none;fill-rule:nonzero;fill:rgb(6.666667%,48.235294%,70.980392%);fill-opacity:1;" d="M 5.695312 23.992188 C 5.1875 24.09375 5.175781 24.160156 5.175781 28.242188 C 5.175781 31.90625 5.1875 32.039062 5.371094 32.226562 C 5.554688 32.414062 5.695312 32.421875 9.414062 32.421875 L 13.273438 32.421875 L 13.46875 32.167969 C 13.664062 31.914062 13.671875 31.804688 13.671875 28.210938 L 13.671875 24.523438 L 13.203125 23.976562 L 9.550781 23.964844 C 7.546875 23.953125 5.8125 23.964844 5.695312 23.992188 Z M 12.207031 28.222656 L 12.207031 31.054688 L 6.640625 31.054688 L 6.640625 25.390625 L 12.207031 25.390625 Z M 12.207031 28.222656 "/>
<path style=" stroke:none;fill-rule:nonzero;fill:rgb(6.666667%,48.235294%,70.980392%);fill-opacity:1;" d="M 16.425781 26.101562 C 16.007812 26.542969 16.269531 27.179688 16.914062 27.296875 C 17.089844 27.324219 19.539062 27.34375 22.34375 27.324219 L 27.460938 27.296875 L 27.648438 27.0625 C 27.890625 26.765625 27.882812 26.320312 27.636719 26.074219 C 27.441406 25.878906 27.3125 25.878906 22.039062 25.878906 L 16.632812 25.878906 Z M 16.425781 26.101562 "/>
<path style=" stroke:none;fill-rule:nonzero;fill:rgb(6.666667%,48.235294%,70.980392%);fill-opacity:1;" d="M 16.40625 29.394531 C 16.152344 29.648438 16.152344 30.078125 16.40625 30.351562 C 16.609375 30.566406 16.632812 30.566406 20.214844 30.566406 L 23.820312 30.566406 L 24.015625 30.3125 C 24.132812 30.164062 24.21875 29.980469 24.21875 29.882812 C 24.21875 29.785156 24.132812 29.601562 24.015625 29.453125 L 23.820312 29.199219 L 20.203125 29.199219 C 16.726562 29.199219 16.59375 29.210938 16.40625 29.394531 Z M 16.40625 29.394531 "/>
<path style=" stroke:none;fill-rule:nonzero;fill:rgb(6.666667%,48.235294%,70.980392%);fill-opacity:1;" d="M 5.695312 36.007812 C 5.1875 36.101562 5.175781 36.171875 5.175781 40.242188 C 5.175781 43.820312 5.1875 44.03125 5.359375 44.25 L 5.546875 44.484375 L 13.203125 44.484375 L 13.671875 43.9375 L 13.671875 36.53125 L 13.203125 35.984375 L 9.550781 35.976562 C 7.546875 35.96875 5.8125 35.976562 5.695312 36.007812 Z M 12.207031 40.234375 L 12.207031 43.066406 L 6.640625 43.066406 L 6.640625 37.402344 L 12.207031 37.402344 Z M 12.207031 40.234375 "/>
<path style=" stroke:none;fill-rule:nonzero;fill:rgb(6.666667%,48.235294%,70.980392%);fill-opacity:1;" d="M 16.425781 38.117188 C 15.996094 38.5625 16.25 39.1875 16.914062 39.304688 C 17.089844 39.335938 18.703125 39.355469 20.488281 39.335938 L 23.75 39.304688 L 23.984375 39.03125 C 24.265625 38.703125 24.277344 38.484375 24.015625 38.144531 L 23.820312 37.890625 L 16.632812 37.890625 Z M 16.425781 38.117188 "/>
<path style=" stroke:none;fill-rule:nonzero;fill:rgb(6.666667%,48.235294%,70.980392%);fill-opacity:1;" d="M 16.640625 41.25 C 16.152344 41.464844 16.054688 42.011719 16.4375 42.363281 C 16.660156 42.578125 16.699219 42.578125 20.234375 42.578125 C 23.507812 42.578125 23.808594 42.570312 23.953125 42.402344 C 24.238281 42.089844 24.257812 41.75 23.992188 41.445312 L 23.75 41.164062 L 20.34375 41.140625 C 17.636719 41.125 16.882812 41.140625 16.640625 41.25 Z M 16.640625 41.25 "/>
</g>
</svg>
